REM MD5 942f5e8aedaf23bc2b7fefae8bbe2c94
FILE "Doko Demo Hamster 2 (Japan).bin" BINARY
  TRACK 01 MODE2/2352
    INDEX 01 00:00:00
  TRACK 02 AUDIO
    INDEX 00 02:56:01
    INDEX 01 02:58:01
  TRACK 03 AUDIO
    INDEX 00 04:30:32
    INDEX 01 04:32:32
  TRACK 04 AUDIO
    INDEX 00 06:35:20
    INDEX 01 06:37:20
REM LEADOUT 09:37:20
